<!DOCTYPE svg PUBLIC "-//W3C//DTD SVG 1.1//EN" "http://www.w3.org/Graphics/SVG/1.1/DTD/svg11.dtd">
<!-- Uploaded to: SVG Repo, www.svgrepo.com, Transformed by: SVG Repo Mixer Tools -->
<svg fill="#050125" height="154px" width="154px" version="1.1" id="Layer_1" xmlns="http://www.w3.org/2000/svg" xmlns:xlink="http://www.w3.org/1999/xlink" viewBox="0 0 511.999 511.999" xml:space="preserve">
<g id="SVGRepo_bgCarrier" stroke-width="0"/>
<g id="SVGRepo_tracerCarrier" stroke-linecap="round" stroke-linejoin="round"/>
<g id="SVGRepo_iconCarrier"> <g> <g> <path d="M492.87,15.914L375.259,33.555L226.567,7.953c-1.764-0.304-4.104-0.315-6.093,0.082L90.185,34.093 c-7.787,1.557-13.392,8.394-13.392,16.334v1.607c-29.619,8.725-51.308,36.146-51.308,68.553c0,13.478,8.077,33.511,24.069,59.79 C17.506,216.041,0,261.555,0,309.979c0,107.131,87.158,194.29,194.289,194.29c105.67,0,191.9-84.797,194.234-189.917 l109.288-16.393c8.155-1.223,14.188-8.228,14.188-16.474V32.388C512,22.225,502.956,14.403,492.87,15.914z M210.947,153.941 c16.472,9.665,28.428,30.447,35.855,47.958c-11.548,3.986-23.567,6.652-35.855,7.922V153.941z M210.947,243.279 c15.911-1.359,31.477-4.649,46.392-9.766c4.714,18.473,7.688,38.68,8.708,59.806h-55.1V243.279z M96.951,82.438 c21.035,0,38.15,17.114,38.15,38.149c0,0.164-0.012,0.346-0.021,0.523c-1.095,16.02-28.803,57.43-38.103,70.637 c-8.906-12.692-38.175-55.731-38.175-71.16C58.801,99.519,75.966,82.438,96.951,82.438z M68.621,209.355 c1.089,1.555,6.917,9.831,8.128,11.308c4.934,6.012,12.371,9.561,20.193,9.569h0.023c0.263,0,0.525-0.016,0.787-0.023 c-4.681,19.777-7.586,41.074-8.564,63.113H34.164C37.31,262.422,49.186,233.5,68.621,209.355z M34.176,326.637H89.19 c1.151,25.954,4.982,50.876,11.229,73.501c-9.05,5.006-17.727,10.755-25.95,17.213C52.387,392.734,37.756,361.303,34.176,326.637z M99.617,440.082c3.871-2.823,7.857-5.457,11.94-7.911c3.521,8.195,7.16,15.338,11.029,21.898 C114.522,450.04,106.844,445.355,99.617,440.082z M177.63,466.016c-16.471-9.664-28.427-30.446-35.854-47.958 c11.548-3.986,23.567-6.652,35.854-7.922V466.016z M177.63,376.678c-15.911,1.359-31.476,4.649-46.391,9.766 c-4.714-18.474-7.688-38.68-8.708-59.806h55.099V376.678z M177.63,293.32h-55.099c1.02-21.144,3.998-41.368,8.719-59.854 c14.969,5.131,30.558,8.431,46.38,9.796V293.32z M177.63,209.809c-12.226-1.274-24.26-3.945-35.843-7.936 c7.451-17.56,19.405-38.287,35.843-47.932V209.809z M207.082,116.111c-12.733-0.839-26.064-0.393-38.733,1.303 c-1.044-23.731-13.905-45.548-34.581-58.061l73.314-14.663V116.111z M210.947,466.016v-55.88 c12.286,1.269,24.307,3.936,35.855,7.923C239.376,435.57,227.419,456.352,210.947,466.016z M210.947,376.678v-50.041h55.1 c-1.018,21.126-3.992,41.333-8.708,59.806C242.424,381.327,226.859,378.037,210.947,376.678z M265.994,454.07 c3.876-6.572,7.516-13.72,11.029-21.897c4.082,2.453,8.068,5.088,11.94,7.911C281.736,445.355,274.058,450.04,265.994,454.07z M288.161,219.819c8.991-4.974,17.614-10.679,25.789-17.085c22.198,24.777,36.877,56.3,40.443,90.587H299.39v-0.001 C298.239,267.366,294.408,242.444,288.161,219.819z M277.022,187.787c-3.487-8.119-7.111-15.249-10.971-21.804 c8.001,4.032,15.621,8.717,22.793,13.978C285.009,182.751,281.063,185.358,277.022,187.787z M314.11,417.351 c-8.223-6.457-16.9-12.206-25.95-17.213c6.248-22.625,10.078-47.547,11.229-73.501h55.014 C350.824,361.303,336.193,392.734,314.11,417.351z M358.417,206.049c-27.456-43.418-70.57-73.222-118.019-84.828V44.142 l118.019,20.32V206.049z M478.683,267.138l-86.949,13.043V64.774l86.949-13.043V267.138z"/> </g> </g> <g> <g> <path d="M459.896,114.541l7.355-7.355c6.506-6.505,6.506-17.053,0-23.559c-6.504-6.506-17.052-6.506-23.559,0l-7.355,7.355 l-7.355-7.355c-6.505-6.506-17.053-6.506-23.559,0s-6.506,17.053,0,23.559l7.355,7.355l-7.355,7.355 c-6.507,6.505-6.507,17.053,0,23.559c6.505,6.506,17.053,6.506,23.559,0l7.355-7.355l7.355,7.355 c6.505,6.506,17.053,6.507,23.559,0c6.506-6.506,6.506-17.053,0-23.559L459.896,114.541z"/> </g> </g> <g> <g> <circle cx="96.953" cy="120.585" r="18.666"/> </g> </g> </g>
</svg>